<?xml version="1.0" encoding="utf-8"?>
<!-- Generator: Adobe Illustrator 16.0.0, SVG Export Plug-In . SVG Version: 6.00 Build 0)  -->
<!DOCTYPE svg PUBLIC "-//W3C//DTD SVG 1.1//EN" "http://www.w3.org/Graphics/SVG/1.1/DTD/svg11.dtd">
<svg version="1.1" id="Layer_1" xmlns="http://www.w3.org/2000/svg" xmlns:xlink="http://www.w3.org/1999/xlink" x="0px" y="0px"
	 width="575px" height="97px" viewBox="0 0 575 97" enable-background="new 0 0 575 97" xml:space="preserve">
<g>
	<rect x="23" y="19" fill="none" width="594" height="164"/>
	<path d="M64.594,67.586v-1.094c0.729,0,1.432-0.125,2.109-0.375c0.677-0.25,1.276-0.604,1.797-1.063
		c0.521-0.458,0.938-0.995,1.25-1.609c0.313-0.614,0.469-1.286,0.469-2.016V28.68c0-0.646-0.146-0.969-0.438-0.969
		c-0.208,0-0.417,0.167-0.625,0.5L52.75,68.742L36.438,28.43c-0.063-0.271-0.292-0.406-0.688-0.406
		c-0.167,0-0.287,0.078-0.359,0.234c-0.073,0.156-0.109,0.359-0.109,0.609V61.43c0,0.729,0.156,1.401,0.469,2.016
		c0.313,0.615,0.729,1.151,1.25,1.609c0.521,0.458,1.12,0.813,1.797,1.063c0.677,0.25,1.38,0.375,2.109,0.375v1.094H28.563v-1.094
		c0.729,0,1.432-0.125,2.109-0.375c0.677-0.25,1.276-0.604,1.797-1.063c0.521-0.458,0.938-0.995,1.25-1.609
		c0.313-0.614,0.469-1.286,0.469-2.016v-32.5c0-0.708-0.156-1.37-0.469-1.984c-0.313-0.614-0.729-1.146-1.25-1.594
		c-0.521-0.448-1.12-0.797-1.797-1.047c-0.677-0.25-1.38-0.375-2.109-0.375v-1.156h11.656l14.906,37l14.969-37h11.344v1.156
		c-0.729,0-1.433,0.125-2.109,0.375c-0.677,0.25-1.276,0.599-1.797,1.047c-0.521,0.448-0.938,0.979-1.25,1.594
		c-0.313,0.615-0.469,1.276-0.469,1.984v32.5c0,0.729,0.156,1.401,0.469,2.016c0.313,0.615,0.729,1.151,1.25,1.609
		c0.521,0.458,1.12,0.813,1.797,1.063c0.677,0.25,1.38,0.375,2.109,0.375v1.094H64.594z"/>
	<path d="M92.563,67.586v-1.094c0.729,0,1.432-0.125,2.109-0.375c0.677-0.25,1.276-0.604,1.797-1.063
		c0.521-0.458,0.938-0.995,1.25-1.609c0.313-0.614,0.469-1.286,0.469-2.016v-32.5c0-0.708-0.156-1.37-0.469-1.984
		c-0.313-0.614-0.729-1.146-1.25-1.594c-0.521-0.448-1.12-0.797-1.797-1.047c-0.677-0.25-1.38-0.375-2.109-0.375v-1.156h16.844
		v1.156c-0.729,0-1.433,0.125-2.109,0.375c-0.677,0.25-1.276,0.599-1.797,1.047c-0.521,0.448-0.938,0.979-1.25,1.594
		c-0.313,0.615-0.469,1.276-0.469,1.984v32.5c0,0.729,0.156,1.401,0.469,2.016c0.313,0.615,0.729,1.151,1.25,1.609
		c0.521,0.458,1.12,0.813,1.797,1.063c0.677,0.25,1.38,0.375,2.109,0.375v1.094H92.563z"/>
	<path d="M143.375,67.586v-1.094c2.604,0,3.906-0.938,3.906-2.813c0-0.646-0.063-1.094-0.188-1.344l-2.188-5.938h-18.094
		l-1.781,5.031c-0.146,0.417-0.261,0.818-0.344,1.203c-0.083,0.386-0.125,0.734-0.125,1.047c0,1.875,1.302,2.813,3.906,2.813v1.094
		h-12.094v-1.094c1.042,0,1.948-0.088,2.719-0.266c0.771-0.177,1.448-0.463,2.031-0.859c0.583-0.396,1.088-0.917,1.516-1.563
		c0.427-0.646,0.817-1.438,1.172-2.375l14.438-39.719l14.531,39.719c0.333,0.938,0.719,1.724,1.156,2.359
		c0.438,0.636,0.953,1.156,1.547,1.563s1.281,0.698,2.063,0.875c0.781,0.177,1.672,0.266,2.672,0.266v1.094H143.375z
		 M135.844,31.492l-8.594,23.813h17.281L135.844,31.492z"/>
	<path fill="#45423B" d="M196.992,55.281c-0.305,1.992-0.973,3.785-2.004,5.379c-1.032,1.594-2.461,2.988-4.289,4.184
		c-1.617,1.125-3.34,1.957-5.168,2.496s-3.774,0.809-5.836,0.809c-2.79,0-5.648-1.007-8.578-3.023
		c-0.258-0.141-0.445-0.246-0.563-0.316c-0.118-0.07-0.234-0.105-0.352-0.105c-0.867,0-1.441,0.773-1.723,2.32h-1.16l1.23-8.508
		l1.195-0.563c-0.07,1.266,0.105,2.42,0.527,3.463c0.422,1.043,1.066,1.975,1.934,2.795c0.867,0.821,1.846,1.441,2.936,1.863
		s2.268,0.633,3.533,0.633c2.765,0,5.285-0.785,7.559-2.355c1.172-0.796,2.104-1.734,2.795-2.813
		c0.691-1.078,1.13-2.297,1.318-3.656c0.211-1.64-0.03-3.146-0.721-4.518c-0.691-1.371-1.893-2.654-3.604-3.85
		c-1.547-0.984-3.106-1.957-4.676-2.918c-1.57-0.961-3.129-1.934-4.676-2.918c-3.282-2.578-4.676-5.742-4.184-9.492
		c0.539-3.633,2.391-6.632,5.555-9c2.976-2.273,6.316-3.41,10.02-3.41c2.109,0,3.714,0.246,4.816,0.738
		c0.539,0.211,1.119,0.551,1.74,1.02c0.621,0.469,1.306,1.043,2.057,1.723c0.141,0.141,0.293,0.211,0.457,0.211
		c0.469,0,0.844-0.844,1.125-2.531h1.16l-1.16,8.508l-1.195,0.492c0.281-2.438-0.375-4.523-1.969-6.258
		c-1.594-1.734-3.609-2.602-6.047-2.602c-2.484,0-4.758,0.821-6.82,2.461c-2.039,1.641-3.247,3.656-3.621,6.047
		c-0.422,3.047,1.066,5.754,4.465,8.121c1.594,1.032,3.199,2.045,4.816,3.041c1.617,0.997,3.234,1.999,4.852,3.006
		C196.066,48.449,197.484,51.625,196.992,55.281z"/>
	<path fill="#45423B" d="M229.652,67.586l0.141-1.16c2.602,0,4.043-0.937,4.324-2.813c0.07-0.656,0.07-1.113,0-1.371l-1.371-5.977
		h-18.281l-2.531,5.133c-0.188,0.399-0.34,0.786-0.457,1.16c-0.118,0.375-0.199,0.727-0.246,1.055
		c-0.281,1.875,0.867,2.813,3.445,2.813l-0.141,1.16h-12.164l0.141-1.16c1.055,0,1.986-0.082,2.795-0.246
		c0.809-0.164,1.535-0.445,2.18-0.844c0.645-0.398,1.225-0.914,1.74-1.547c0.515-0.633,1.02-1.429,1.512-2.391l20.285-40.184
		l8.93,40.184c0.211,0.938,0.492,1.723,0.844,2.355s0.796,1.148,1.336,1.547c0.539,0.399,1.183,0.686,1.934,0.861
		c0.75,0.176,1.64,0.264,2.672,0.264l-0.176,1.16H229.652z M227.121,31.164l-12.023,23.977h17.367L227.121,31.164z"/>
	<path fill="#45423B" d="M286.465,67.586h-32.836l0.141-1.16c0.726,0,1.453-0.128,2.18-0.387c0.726-0.258,1.383-0.609,1.969-1.055
		c0.585-0.445,1.078-0.972,1.477-1.582c0.398-0.609,0.656-1.277,0.773-2.004l4.605-32.836c0.093-0.726,0.029-1.394-0.193-2.004
		c-0.223-0.609-0.563-1.137-1.02-1.582c-0.457-0.445-1.014-0.796-1.67-1.055c-0.656-0.258-1.348-0.387-2.074-0.387l0.141-1.16h16.98
		l-0.141,1.16c-0.75,0-1.482,0.129-2.197,0.387c-0.715,0.258-1.366,0.61-1.951,1.055c-0.586,0.445-1.084,0.973-1.494,1.582
		c-0.41,0.61-0.663,1.278-0.756,2.004l-4.605,32.836c-0.118,0.727-0.059,1.395,0.176,2.004c0.234,0.61,0.58,1.137,1.037,1.582
		c0.457,0.445,1.007,0.797,1.652,1.055c0.645,0.258,1.341,0.387,2.092,0.387h10.723c0.726,0,1.424-0.152,2.092-0.457
		c0.668-0.304,1.266-0.721,1.793-1.248s0.967-1.125,1.318-1.793s0.585-1.376,0.703-2.127h1.09L286.465,67.586z"/>
	<path fill="#45423B" d="M320.496,67.586l0.141-1.16c2.602,0,4.043-0.937,4.324-2.813c0.07-0.656,0.07-1.113,0-1.371l-1.371-5.977
		h-18.281l-2.531,5.133c-0.188,0.399-0.34,0.786-0.457,1.16c-0.118,0.375-0.199,0.727-0.246,1.055
		c-0.281,1.875,0.867,2.813,3.445,2.813l-0.141,1.16h-12.164l0.141-1.16c1.055,0,1.986-0.082,2.795-0.246
		c0.809-0.164,1.535-0.445,2.18-0.844c0.645-0.398,1.225-0.914,1.74-1.547c0.515-0.633,1.02-1.429,1.512-2.391l20.285-40.184
		l8.93,40.184c0.211,0.938,0.492,1.723,0.844,2.355s0.797,1.148,1.336,1.547c0.539,0.399,1.184,0.686,1.934,0.861
		s1.641,0.264,2.672,0.264l-0.176,1.16H320.496z M317.965,31.164l-12.023,23.977h17.367L317.965,31.164z"/>
	<path fill="#45423B" d="M382.125,23.535c-1.055,0-1.986,0.083-2.795,0.246c-0.809,0.164-1.529,0.439-2.162,0.826
		s-1.213,0.902-1.74,1.547c-0.527,0.645-1.037,1.447-1.529,2.408l-20.215,40.184l-9-40.184c-0.211-0.937-0.492-1.728-0.844-2.373
		c-0.352-0.645-0.797-1.16-1.336-1.547s-1.184-0.668-1.934-0.844s-1.641-0.264-2.672-0.264l0.141-1.16h16.91l-0.141,1.16
		c-2.602,0-4.008,0.926-4.219,2.777c-0.094,0.329-0.146,0.61-0.158,0.844c-0.012,0.234,0.006,0.41,0.053,0.527l6.996,31.113
		l15.188-30.234c0.234-0.398,0.41-0.791,0.527-1.178s0.211-0.744,0.281-1.072c0.211-1.851-0.973-2.777-3.551-2.777l0.176-1.16
		h12.164L382.125,23.535z"/>
	<path fill="#45423B" d="M418.617,67.586h-35.648l0.141-1.16c0.727,0,1.453-0.128,2.18-0.387c0.727-0.258,1.383-0.609,1.969-1.055
		c0.586-0.445,1.078-0.972,1.477-1.582c0.398-0.609,0.656-1.277,0.773-2.004l4.605-32.836c0.094-0.726,0.029-1.394-0.193-2.004
		c-0.223-0.609-0.563-1.137-1.02-1.582c-0.457-0.445-1.014-0.796-1.67-1.055c-0.656-0.258-1.348-0.387-2.074-0.387l0.141-1.16
		h35.648l0.211,6.75h-1.16c0.094-0.726,0.059-1.429-0.105-2.109c-0.164-0.68-0.439-1.277-0.826-1.793
		c-0.387-0.515-0.867-0.926-1.441-1.23c-0.574-0.304-1.225-0.457-1.951-0.457h-13.535c-0.75,0-1.482,0.129-2.197,0.387
		c-0.715,0.258-1.365,0.61-1.951,1.055c-0.586,0.445-1.084,0.973-1.494,1.582c-0.41,0.61-0.662,1.278-0.756,2.004l-2.25,15.855
		h7.945c0.727,0,1.418-0.152,2.074-0.457c0.656-0.304,1.248-0.721,1.775-1.248s0.973-1.125,1.336-1.793s0.604-1.376,0.721-2.127
		h1.125l-1.723,12.375h-1.125c0.094-0.726,0.059-1.429-0.105-2.109c-0.164-0.68-0.439-1.283-0.826-1.811s-0.867-0.943-1.441-1.248
		c-0.574-0.304-1.225-0.457-1.951-0.457h-7.945l-2.215,15.855c-0.117,0.727-0.059,1.395,0.176,2.004
		c0.234,0.61,0.58,1.137,1.037,1.582c0.457,0.445,1.008,0.797,1.652,1.055c0.645,0.258,1.342,0.387,2.092,0.387h13.535
		c0.727,0,1.424-0.152,2.092-0.457c0.668-0.304,1.266-0.721,1.793-1.248s0.967-1.125,1.318-1.793s0.586-1.376,0.703-2.127h1.16
		L418.617,67.586z"/>
	<path fill="#45423B" d="M479.227,78.906c-5.531,0-9.727-1.665-12.586-4.992c-2.93-3.282-4.043-7.652-3.34-13.113l0.738-4.816
		c0.188-1.453,0.111-2.783-0.229-3.99c-0.34-1.207-0.967-2.326-1.881-3.357c-1.711-2.062-4.008-3.094-6.891-3.094h-3.973
		l0.141-1.125h5.414c2.836,0,5.426-1.007,7.77-3.023c2.367-2.086,3.762-4.558,4.184-7.418c0.188-1.453,0.111-2.789-0.229-4.008
		c-0.34-1.218-0.967-2.332-1.881-3.34c-1.688-2.062-3.984-3.094-6.891-3.094h-5.414c-0.75,0-1.482,0.129-2.197,0.387
		c-0.715,0.258-1.365,0.61-1.951,1.055c-0.586,0.445-1.084,0.973-1.494,1.582c-0.41,0.61-0.662,1.278-0.756,2.004l-4.605,32.836
		c-0.117,0.727-0.059,1.395,0.176,2.004c0.234,0.61,0.58,1.137,1.037,1.582c0.457,0.445,1.008,0.797,1.652,1.055
		c0.645,0.258,1.342,0.387,2.092,0.387l-0.141,1.16h-16.98l0.141-1.16c0.727-0.023,1.453-0.164,2.18-0.422
		c0.727-0.258,1.383-0.603,1.969-1.037c0.586-0.434,1.078-0.955,1.477-1.564c0.398-0.609,0.656-1.277,0.773-2.004l4.605-32.836
		c0.094-0.726,0.029-1.394-0.193-2.004c-0.223-0.609-0.563-1.13-1.02-1.564c-0.457-0.434-1.014-0.779-1.67-1.037
		c-0.656-0.258-1.348-0.398-2.074-0.422l0.141-1.16h22.395c2.133,0,4.107,0.211,5.924,0.633s3.463,1.078,4.939,1.969
		c3.703,2.086,5.285,5.086,4.746,9c-0.422,3.117-2.074,5.66-4.957,7.629c-2.32,1.665-5.227,2.813-8.719,3.445
		c6.891,1.359,9.938,5.004,9.141,10.934l-0.703,4.746c-1.594,11.414,1.5,17.086,9.281,17.016L479.227,78.906z"/>
	<path fill="#45423B" d="M483.832,67.586l0.141-1.16c0.727,0,1.453-0.128,2.18-0.387c0.727-0.258,1.383-0.609,1.969-1.055
		c0.586-0.445,1.078-0.972,1.477-1.582c0.398-0.609,0.656-1.277,0.773-2.004l4.605-32.836c0.094-0.726,0.029-1.394-0.193-2.004
		c-0.223-0.609-0.563-1.137-1.02-1.582c-0.457-0.445-1.014-0.796-1.67-1.055c-0.656-0.258-1.348-0.387-2.074-0.387l0.141-1.16h16.98
		L507,23.535c-0.75,0-1.482,0.129-2.197,0.387c-0.715,0.258-1.365,0.61-1.951,1.055c-0.586,0.445-1.084,0.973-1.494,1.582
		c-0.41,0.61-0.662,1.278-0.756,2.004l-4.605,32.836c-0.117,0.727-0.059,1.395,0.176,2.004c0.234,0.61,0.58,1.137,1.037,1.582
		c0.457,0.445,1.008,0.797,1.652,1.055c0.645,0.258,1.342,0.387,2.092,0.387l-0.141,1.16H483.832z"/>
	<path fill="#45423B" d="M535.16,67.586l0.141-1.16c2.602,0,4.043-0.937,4.324-2.813c0.07-0.656,0.07-1.113,0-1.371l-1.371-5.977
		h-18.281l-2.531,5.133c-0.188,0.399-0.34,0.786-0.457,1.16c-0.117,0.375-0.199,0.727-0.246,1.055
		c-0.281,1.875,0.867,2.813,3.445,2.813l-0.141,1.16h-12.164l0.141-1.16c1.055,0,1.986-0.082,2.795-0.246
		c0.809-0.164,1.535-0.445,2.18-0.844c0.645-0.398,1.225-0.914,1.74-1.547s1.02-1.429,1.512-2.391l20.285-40.184l8.93,40.184
		c0.211,0.938,0.492,1.723,0.844,2.355s0.797,1.148,1.336,1.547c0.539,0.399,1.184,0.686,1.934,0.861s1.641,0.264,2.672,0.264
		l-0.176,1.16H535.16z M532.629,31.164l-12.023,23.977h17.367L532.629,31.164z"/>
</g>
<g>
</g>
<g>
</g>
<g>
</g>
<g>
</g>
<g>
</g>
<g>
</g>
</svg>
